<svg width="192" height="192" viewBox="0 0 192 192" fill="none" xmlns="http://www.w3.org/2000/svg">
<path d="M69.1141 47.3492C66.5761 42.5206 63.4274 38.2207 59.8138 34.493C27.6879 53.2898 15.5067 93.9736 32.3241 127.429C36.8989 126.377 41.415 124.726 45.7656 122.439C72.9483 108.151 83.4017 74.5321 69.1141 47.3492ZM121.816 149.093C107.528 121.91 73.9097 111.456 46.7268 125.743C42.6575 127.882 38.9653 130.457 35.6728 133.376C54.6712 163.631 93.5503 175.104 126.057 159.632C125.026 156.051 123.618 152.521 121.816 149.093ZM158.202 62.3404C159.11 64.0935 159.939 65.8664 160.692 67.6554C156.428 68.7122 152.221 70.2943 148.158 72.4298C120.975 86.7176 110.522 120.337 124.81 147.519C126.611 150.948 128.722 154.109 131.087 156.989C163.882 138.078 176.139 96.4628 158.371 62.6576C158.315 62.5515 158.258 62.446 158.202 62.3404ZM157.833 61.6551C139.962 28.9152 99.8421 15.774 66.2117 31.1666C67.2338 36.2459 68.9855 41.2672 71.5181 46.0856C85.8058 73.2687 119.425 83.7226 146.608 69.4349C150.747 67.2594 154.498 64.6359 157.833 61.6551Z" fill="#9C39EE"/>
</svg>
