<svg width="163" height="162" viewBox="0 0 163 162" fill="none" xmlns="http://www.w3.org/2000/svg">
<g filter="url(#filter0_d_1461_1577)">
<path d="M81.2173 0.000976562C81.2386 9.66792 83.1523 19.2378 86.8521 28.1699C90.5726 37.1522 96.0261 45.3137 102.901 52.1885C109.776 59.0632 117.937 64.5167 126.919 68.2373C135.853 71.9376 145.424 73.8503 155.092 73.8711C155.092 73.9258 155.094 73.9805 155.094 74.0352C155.094 74.0892 155.092 74.1432 155.092 74.1973C145.424 74.2181 135.853 76.1319 126.92 79.832C117.938 83.5526 109.777 89.0062 102.902 95.8809C96.0271 102.756 90.5736 110.917 86.853 119.899C83.289 128.504 81.3822 137.7 81.228 147.005C81.0162 137.724 78.7837 128.115 75.2466 119.575C71.526 110.593 66.0725 102.431 59.1978 95.5566C52.323 88.682 44.1614 83.2284 35.1792 79.5078C26.2519 75.81 16.6875 73.8963 7.02588 73.873V73.8711C16.6889 73.8483 26.2546 71.9356 35.1831 68.2373C44.1654 64.5167 52.3269 59.0632 59.2017 52.1885C66.0764 45.3137 71.5299 37.1522 75.2505 28.1699C78.9503 19.2378 80.863 9.66791 80.8843 0.000976562C80.9425 0.000841727 81.0008 2.06912e-07 81.0591 0C81.1117 0 81.1646 0.000866666 81.2173 0.000976562Z" fill="#FDD442"/>
</g>
<defs>
<filter id="filter0_d_1461_1577" x="1.38283e-05" y="0" width="162.12" height="161.057" filterUnits="userSpaceOnUse" color-interpolation-filters="sRGB">
<feFlood flood-opacity="0" result="BackgroundImageFix"/>
<feColorMatrix in="SourceAlpha" type="matrix" values="0 0 0 0 0 0 0 0 0 0 0 0 0 0 0 0 0 0 127 0" result="hardAlpha"/>
<feOffset dy="7.02587"/>
<feGaussianBlur stdDeviation="3.51293"/>
<feComposite in2="hardAlpha" operator="out"/>
<feColorMatrix type="matrix" values="0 0 0 0 0 0 0 0 0 0 0 0 0 0 0 0 0 0 0.25 0"/>
<feBlend mode="normal" in2="BackgroundImageFix" result="effect1_dropShadow_1461_1577"/>
<feBlend mode="normal" in="SourceGraphic" in2="effect1_dropShadow_1461_1577" result="shape"/>
</filter>
</defs>
</svg>
